# Blender 4.3.2
# www.blender.org
mtllib trayectoria01.mtl
o BézierCircle
v -11.928595 0.000000 -0.048764
v -11.814610 0.000000 -1.794436
v -11.482586 0.000000 -3.468860
v -10.947414 0.000000 -5.056683
v -10.223989 0.000000 -6.542550
v -9.327201 0.000000 -7.911108
v -8.271945 0.000000 -9.147005
v -7.073112 0.000000 -10.234886
v -5.745596 0.000000 -11.159400
v -4.304290 0.000000 -11.905192
v -2.764087 0.000000 -12.456910
v -1.139879 0.000000 -12.799199
v 0.553441 0.000000 -12.916710
v 2.246761 0.000000 -12.799202
v 3.870969 0.000000 -12.456912
v 5.411172 0.000000 -11.905194
v 6.852478 0.000000 -11.159402
v 8.179994 0.000000 -10.234889
v 9.378825 0.000000 -9.147006
v 10.434081 0.000000 -7.911109
v 11.330869 0.000000 -6.542550
v 12.054295 0.000000 -5.056683
v 12.589466 0.000000 -3.468860
v 12.921490 0.000000 -1.794436
v 13.035477 0.000000 -0.048764
v 12.921493 0.000000 1.696909
v -12.026255 0.000000 1.696909
l 1 2
l 2 3
l 3 4
l 4 5
l 5 6
l 6 7
l 7 8
l 8 9
l 9 10
l 10 11
l 11 12
l 12 13
l 13 14
l 14 15
l 15 16
l 16 17
l 17 18
l 18 19
l 19 20
l 20 21
l 21 22
l 22 23
l 23 24
l 24 25
l 25 26
l 27 1
